<svg width="17" height="17" viewBox="0 0 17 17" fill="none" xmlns="http://www.w3.org/2000/svg">
<path fill-rule="evenodd" clip-rule="evenodd" d="M10.6273 3.54163H7.10707C5.55175 3.54163 4.29091 4.81015 4.29091 6.37496V10.625C4.29091 12.1898 5.55175 13.4583 7.10707 13.4583H10.6273C12.1826 13.4583 13.4434 12.1898 13.4434 10.625V6.37496C13.4434 4.81015 12.1826 3.54163 10.6273 3.54163Z" stroke="#4D4D4D" stroke-linecap="round" stroke-linejoin="round"/>
<path d="M10.9793 6.875C11.2554 6.875 11.4793 6.65114 11.4793 6.375C11.4793 6.09886 11.2554 5.875 10.9793 5.875V6.875ZM6.75505 5.875C6.47891 5.875 6.25505 6.09886 6.25505 6.375C6.25505 6.65114 6.47891 6.875 6.75505 6.875V5.875ZM10.9793 9C11.2554 9 11.4793 8.77614 11.4793 8.5C11.4793 8.22386 11.2554 8 10.9793 8V9ZM6.75505 8C6.47891 8 6.25505 8.22386 6.25505 8.5C6.25505 8.77614 6.47891 9 6.75505 9V8ZM8.86717 11.125C9.14331 11.125 9.36717 10.9011 9.36717 10.625C9.36717 10.3489 9.14331 10.125 8.86717 10.125V11.125ZM6.75505 10.125C6.47891 10.125 6.25505 10.3489 6.25505 10.625C6.25505 10.9011 6.47891 11.125 6.75505 11.125V10.125ZM10.9793 5.875H6.75505V6.875H10.9793V5.875ZM10.9793 8H6.75505V9H10.9793V8ZM8.86717 10.125H6.75505V11.125H8.86717V10.125Z" fill="#4D4D4D"/>
</svg>
