<svg width="12" height="12" viewBox="0 0 12 12" fill="none" xmlns="http://www.w3.org/2000/svg">
<path d="M2.08333 8C2.08333 7.58578 1.74754 7.25 1.33333 7.25C0.919115 7.25 0.583328 7.58578 0.583328 8H2.08333ZM1.33333 8.66666H0.583328H1.33333ZM11.4167 8C11.4167 7.58578 11.0809 7.25 10.6667 7.25C10.2524 7.25 9.91666 7.58578 9.91666 8H11.4167ZM5.41434 8.19814C5.15559 8.52159 5.20803 8.99356 5.53147 9.25231C5.85492 9.51107 6.32689 9.45863 6.58565 9.13518L5.41434 8.19814ZM9.25231 5.80185C9.51107 5.4784 9.45863 5.00643 9.13518 4.74768C8.81174 4.48892 8.33977 4.54136 8.08101 4.86481L9.25231 5.80185ZM5.41434 9.13518C5.6731 9.45863 6.14507 9.51107 6.46852 9.25231C6.79196 8.99356 6.8444 8.52159 6.58565 8.19814L5.41434 9.13518ZM3.91898 4.86481C3.66022 4.54136 3.18825 4.48892 2.86481 4.74768C2.54136 5.00643 2.48892 5.4784 2.74768 5.80185L3.91898 4.86481ZM5.24999 8.66666C5.24999 9.08088 5.58578 9.41666 6 9.41666C6.41421 9.41666 6.75 9.08088 6.75 8.66666H5.24999ZM6.75 1.33333C6.75 0.919115 6.41421 0.583328 6 0.583328C5.58578 0.583328 5.24999 0.919115 5.24999 1.33333H6.75ZM0.583328 8V8.66666H2.08333V8H0.583328ZM0.583328 8.66666C0.583328 10.1854 1.81454 11.4167 3.33333 11.4167V9.91666C2.64297 9.91666 2.08333 9.35702 2.08333 8.66666H0.583328ZM3.33333 11.4167H8.66666V9.91666H3.33333V11.4167ZM8.66666 11.4167C10.1854 11.4167 11.4167 10.1854 11.4167 8.66666H9.91666C9.91666 9.35702 9.35702 9.91666 8.66666 9.91666V11.4167ZM11.4167 8.66666V8H9.91666V8.66666H11.4167ZM6.58565 9.13518L9.25231 5.80185L8.08101 4.86481L5.41434 8.19814L6.58565 9.13518ZM6.58565 8.19814L3.91898 4.86481L2.74768 5.80185L5.41434 9.13518L6.58565 8.19814ZM6.75 8.66666V1.33333H5.24999V8.66666H6.75Z" fill="white"/>
</svg>
